<svg width="668" height="150" viewBox="0 0 668 150" fill="none" xmlns="http://www.w3.org/2000/svg">
<g clip-path="url(#clip0_2_177)">
<mask id="mask0_2_177" style="mask-type:luminance" maskUnits="userSpaceOnUse" x="0" y="0" width="668" height="150">
<path d="M668 0H0V150H668V0Z" fill="white"/>
</mask>
<g mask="url(#mask0_2_177)">
<path d="M33.4171 88.4711C33.2704 95.8858 34.768 138.383 31.66 141.542C30.416 142.807 15.8957 142.664 13.029 142.524C11.562 142.453 9.29033 142.274 8.26264 141.124C7.1819 139.914 7.20097 135.556 7.14461 133.949C6.8247 124.729 7.09654 115.41 7.10566 106.181L7.12555 52.8673L7.08825 23.1441C7.08576 18.6822 7.00205 13.8383 7.1935 9.36147C7.26229 7.75871 8.33309 6.55374 9.56715 5.5891C12.8176 4.81755 27.3354 4.96342 30.4765 5.48717C31.1628 6.25789 31.5987 6.90016 32.5336 7.32033C38.5572 6.77585 55.0293 2.83191 55.8581 5.42832C60.0857 18.6714 65.912 69.2645 67.5729 80.7482C69.5048 93.2612 71.314 105.794 73.0014 118.343C73.4863 121.81 76.5644 137.592 74.1559 139.177C69.5537 142.206 55.8589 142.863 50.3408 142.45C48.5357 136.471 47.9713 129.905 46.9983 123.724C45.2372 112.534 43.9633 100.987 42.1268 89.8427C39.1373 89.6902 36.0874 89.7358 33.4171 88.4711Z" fill="#520E33"/>
<path d="M33.4038 26.3604C35.7385 39.2032 36.9295 52.5225 38.8539 65.4498C39.0901 67.0352 39.2087 68.6669 39.289 70.2689C39.1017 75.3871 38.1876 74.9396 33.3906 75.9987C33.2721 67.612 33.5257 59.0686 33.4171 50.6529C33.3135 42.5802 32.9298 34.3957 33.4038 26.3604Z" fill="white"/>
<path d="M55.1263 92.7051C58.2914 91.8457 61.5659 93.6556 62.5232 96.7932C63.4804 99.9307 61.774 103.261 58.6685 104.316C56.5717 105.028 54.2544 104.543 52.62 103.048C50.9857 101.553 50.2945 99.2876 50.8158 97.1354C51.3379 94.9824 52.9897 93.2852 55.1263 92.7051Z" fill="#520E33"/>
<path d="M56.1647 96.0755C57.4908 95.7995 58.792 96.6424 59.0829 97.965C59.3738 99.2877 58.5467 100.599 57.2281 100.905C56.3612 101.107 55.4528 100.827 54.8495 100.172C54.2469 99.5164 54.0422 98.5882 54.3149 97.7404C54.5867 96.8926 55.2937 96.257 56.1647 96.0755Z" fill="white"/>
<path d="M18.5786 92.686C21.7735 91.8225 25.0663 93.7021 25.9473 96.8935C26.8274 100.085 24.966 103.388 21.781 104.287C18.5711 105.192 15.2369 103.312 14.3493 100.097C13.4616 96.8811 15.3587 93.5562 18.5786 92.686Z" fill="#520E33"/>
<path d="M18.7218 96.5032C19.4653 95.9463 20.4598 95.856 21.2919 96.2695C22.124 96.6831 22.6519 97.53 22.6577 98.4599C22.6627 99.3889 22.1439 100.242 21.3168 100.665C20.1788 101.247 18.7848 100.861 18.1085 99.7767C17.4323 98.6919 17.6991 97.2698 18.7218 96.5032Z" fill="white"/>
<path d="M54.4309 24.0648C55.6003 23.909 55.0699 23.8063 56.0835 24.3391C56.9023 26.2535 56.9935 29.1615 57.1874 31.3237C52.2984 31.632 44.4846 32.9977 39.3851 33.7179L38.3367 33.8314C37.275 32.667 36.999 28.5118 36.7794 26.7607C42.6563 25.8159 48.5399 24.9168 54.4309 24.0648Z" fill="white"/>
<path d="M388.234 24.0085C402.514 23.4225 426.891 23.0911 440.473 25.3054C461.845 28.7902 469.795 54.3068 455.362 71.7142C461.409 76.3079 465.257 81.0499 466.685 88.6966C469.972 106.313 459.001 118.885 441.868 121.586C432.183 123.113 422.38 122.331 412.611 122.512C405.457 122.645 398.205 122.829 391.064 122.53C388.027 122.391 385.72 121.009 385.785 117.719C384.686 103.175 386.488 103.554 400.116 103.796C412.013 103.56 424.537 104.703 436.335 103.523C439.893 103.168 444.152 102.246 446.442 99.2438C447.914 97.312 448.3 94.8871 447.914 92.5278C447.183 88.0601 443.857 84.7211 439.66 83.2891C430.004 79.9949 392.092 84.9731 387.115 80.9769C385.814 79.9319 385.801 78.33 385.726 76.801C385.561 73.4778 384.701 67.5151 387.179 64.9858C388.035 64.1123 388.852 63.9341 390.021 63.7617C393.554 63.2405 397.607 63.6714 401.191 63.693C409.625 63.7419 418.083 63.8902 426.516 63.7477C431.814 63.6582 437.758 63.6234 441.598 59.3736C443.128 57.7079 443.889 55.4769 443.696 53.2228C443.334 48.4642 440.083 44.7855 435.665 43.2714C427.78 40.5689 390.824 44.7416 387.592 41.7424C385.63 39.9217 385.423 36.4576 385.446 33.9416C385.485 29.7739 385.131 27.0366 388.234 24.0085Z" fill="#520E33"/>
<path d="M318.917 23.6214C321.836 23.5112 323.357 23.9628 324.632 26.6976C327.426 32.6927 329.927 38.8253 332.486 44.9239L346.162 77.6479L356.653 102.468C358.549 106.936 360.542 111.432 362.236 115.978C362.869 117.677 363.092 120.846 360.953 121.541C358.826 122.233 356.51 122.5 354.278 122.589C326.652 122.639 299.022 122.574 271.397 122.64C269.199 122.728 265.917 121.643 265.56 119.079C264.935 114.582 268.967 107.752 271.189 103.967C277.283 103.308 297.336 103.766 304.641 103.76L335.547 103.839C330.15 89.9802 324.077 76.2598 318.587 62.4275C317.14 58.7819 315.587 54.8943 313.791 51.4261C310.835 59.7996 307.121 67.9294 303.776 76.1545C301.495 81.7642 298.939 90.3987 295.537 95.2252C294.951 96.0573 294.056 96.5454 293.065 96.6979C289.404 97.2606 280.785 97.8092 277.821 95.5203C277.125 94.9832 276.65 94.6178 276.655 93.6714C276.668 91.4438 277.725 88.5225 278.496 86.4507C280.616 80.7531 303.548 25.8515 305.145 24.6018C307.314 22.9029 315.901 23.6711 318.917 23.6214Z" fill="#520E33"/>
<path d="M112.053 5.22029C117.206 5.15068 130.403 4.28215 134.38 6.3606C136.836 7.6443 136.074 31.9949 136.068 35.6935L136.058 78.9647L136.208 119.311C136.204 125.608 136.233 132.303 135.924 138.607C135.855 140.002 134.711 141.283 133.833 142.362C128.801 142.461 113.928 143.546 110.53 141.043C108.918 135.074 109.637 117.449 109.636 110.602L109.685 61.5647L109.673 27.702C109.644 21.5761 109.502 15.1841 109.801 9.06889C109.872 7.61696 111.101 6.34736 112.053 5.22029Z" fill="#520E33"/>
<path d="M120.939 92.7075C124.097 91.7056 127.473 93.4244 128.523 96.5669C129.572 99.7094 127.904 103.113 124.779 104.209C122.714 104.934 120.42 104.489 118.775 103.046C117.131 101.603 116.391 99.3863 116.839 97.2448C117.288 95.1034 118.854 93.3689 120.939 92.7075Z" fill="#520E33"/>
<path d="M122.051 96.0034C122.938 95.739 123.899 95.9926 124.54 96.6597C125.182 97.3277 125.397 98.2973 125.099 99.1741C124.8 100.051 124.037 100.687 123.122 100.824C121.837 101.016 120.623 100.181 120.341 98.9122C120.059 97.6443 120.806 96.3738 122.051 96.0034Z" fill="white"/>
<path d="M113.156 115.822C118.976 115.551 126.557 115.769 132.513 115.762L132.516 123.056C126.373 123.283 119.291 123.123 113.075 123.133L113.156 115.822Z" fill="white"/>
<path d="M81.6325 5.24934C86.1717 5.1963 100.466 4.43219 104.097 6.29269C106.136 9.06561 105.494 26.9007 105.491 31.2963L105.506 68.9347L105.454 114.812C105.452 122.655 105.535 130.752 105.334 138.606C105.298 140.007 104.184 141.326 103.332 142.442C98.2985 142.354 83.0895 143.404 80.0926 140.656C79.5646 137.887 79.4387 134.567 79.4221 131.718C79.2663 104.403 79.4801 77.0811 79.2737 49.7686L79.1088 21.4999C79.0947 17.3985 78.9662 12.5927 79.3085 8.48634C79.3914 7.49186 80.8783 6.0242 81.6325 5.24934Z" fill="#520E33"/>
<path d="M91.4286 92.7142C94.5606 92.1358 97.5947 94.1206 98.3199 97.2225C99.0451 100.324 97.2061 103.45 94.142 104.321C92.0278 104.921 89.7545 104.311 88.2262 102.73C86.6971 101.151 86.1609 98.8576 86.8305 96.7634C87.5002 94.67 89.2671 93.1137 91.4286 92.7142Z" fill="#520E33"/>
<path d="M91.7244 96.0971C92.9776 95.7433 94.2912 96.4187 94.7321 97.6444C95.1722 98.8701 94.5904 100.228 93.3986 100.754C92.5499 101.128 91.5636 100.997 90.8418 100.415C90.1199 99.8322 89.7826 98.8958 89.9691 97.9875C90.1547 97.0784 90.8318 96.3491 91.7244 96.0971Z" fill="white"/>
<path d="M178 64.2076C193.841 63.4891 210.783 64.8598 226.72 64.162C230.149 64.012 239.277 63.8454 241.849 65.2261C245.055 66.9473 244.453 79.7222 241.902 82.4239C238.697 84.1253 208.412 83.5269 202.263 83.5352L194.578 83.5211C194.452 91.5606 194.578 99.615 194.58 107.655C194.581 111.059 194.951 114.989 194.439 118.333C194.287 119.32 193.979 120.237 193.312 120.995C191.969 122.524 188.95 122.507 187.047 122.623C183.814 122.819 178.792 123.058 176.319 120.526C174.721 118.887 175.191 75.039 175.361 69.3797C175.442 66.6962 176.101 65.9868 178 64.2076Z" fill="#520E33"/>
<path d="M498.768 23.8692C502.729 23.7607 511.002 22.8938 514.2 25.2499C515.778 26.4126 515.833 30.2289 515.874 32.2427C516.017 39.2645 515.972 46.4115 515.974 53.4433L516.028 90.9457C516.044 99.9076 516.223 110.204 515.851 119.211C515.817 120.007 514.136 121.803 513.52 122.485C508.992 122.64 499.768 123.767 496.872 120.505C495.915 119.427 495.971 114.383 495.966 112.715L496.011 53.9156C496.001 45.6027 495.803 36.0681 496.229 27.7046C496.301 26.2899 497.766 24.877 498.768 23.8692Z" fill="#520E33"/>
<path d="M178.783 24.0598L223.112 23.9115C230.51 23.8883 238.094 23.6098 245.419 24.2554C250.296 24.6847 249.866 29.9123 249.789 33.5579C249.692 38.1043 250.499 40.457 246.252 43.0427L200.934 43.0899C198.558 43.0924 194.331 43.0468 192.05 43.0974C175.56 43.4637 173.753 44.1888 175.707 26.3662C175.828 25.2656 177.834 24.3988 178.783 24.0598Z" fill="#520E33"/>
<path d="M590.788 103.943C612.986 103.453 635.407 104.128 657.67 103.891C665.69 103.806 662.578 112.041 663.266 117.472C663.573 119.899 662.22 121.097 660.389 122.537C638.429 122.621 616.547 122.523 594.501 122.53C585.103 122.534 588.65 115.531 588.003 108.707C587.802 106.594 589.277 105.323 590.788 103.943Z" fill="#520E33"/>
<path d="M591.18 63.7112C612.522 63.0781 634.553 63.9764 655.949 63.7228C661.239 63.6598 662.834 65.73 662.593 70.8814C662.341 76.3153 664.058 78.4908 659.371 82.2946L657.923 82.3253C643.809 82.4554 629.694 82.5126 615.579 82.4968C607.74 82.5101 599.746 82.7165 591.973 82.2176C587.543 81.9333 587.807 77.2684 587.925 74.0678C588.107 69.0921 586.937 66.9822 591.18 63.7112Z" fill="#520E33"/>
<path d="M591.76 24.0847L636.925 23.982C644.13 23.9612 651.429 23.769 658.59 24.3988C663.794 24.8571 662.628 36.4908 661.822 40.206C660.815 41.7367 660.493 41.8543 658.861 42.7295L614.412 42.698C607.046 42.7088 597.905 43.1414 590.553 42.1055C588.304 41.788 587.64 36.122 587.826 34.0867C588.242 29.5643 586.437 26.0903 591.76 24.0847Z" fill="#520E33"/>
<path d="M526.527 103.915C539.634 103.587 553.342 103.78 566.444 104.123C569.398 104.2 569.764 110.454 569.65 112.46C569.395 116.947 570.482 118.688 566.969 122.258C562.292 122.832 528.544 123.042 526.484 121.706C525.121 120.821 524.296 119.181 524.142 117.607C523.676 112.861 523.238 107.619 526.527 103.915Z" fill="#520E33"/>
</g>
</g>
<defs>
<clipPath id="clip0_2_177">
<rect width="668" height="150" fill="white"/>
</clipPath>
</defs>
</svg>
